<svg width="24" height="24" viewBox="0 0 24 24" fill="none" xmlns="http://www.w3.org/2000/svg">
<path d="M17.2426 11.5628C17.2679 14.2868 19.6322 15.1933 19.6584 15.2048C19.6384 15.2687 19.2806 16.4966 18.4128 17.7649C17.6625 18.8615 16.8839 19.9539 15.6573 19.9766C14.4521 19.9988 14.0645 19.2619 12.6866 19.2619C11.309 19.2619 10.8785 19.954 9.73755 19.9988C8.55357 20.0436 7.65196 18.8131 6.89552 17.7206C5.34977 15.4858 4.1685 11.4057 5.75465 8.65155C6.54262 7.28383 7.95077 6.41773 9.4792 6.39552C10.6418 6.37334 11.7392 7.1777 12.4499 7.1777C13.1603 7.1777 14.4938 6.21039 15.8957 6.35245C16.4826 6.37688 18.13 6.58952 19.1879 8.13794C19.1026 8.19078 17.2222 9.28549 17.2426 11.5628ZM14.9775 4.87397C15.606 4.1131 16.0291 3.0539 15.9137 2C15.0076 2.03642 13.912 2.60377 13.2621 3.36422C12.6797 4.03763 12.1696 5.11548 12.3073 6.14852C13.3172 6.22665 14.3489 5.63532 14.9775 4.87397Z" fill="black"/>
</svg>
