<svg width="53" height="52" viewBox="0 0 53 52" fill="none" xmlns="http://www.w3.org/2000/svg">
<g filter="url(#filter0_d_6191_7742)">
<rect x="2.5" y="1" width="48" height="48" rx="24" fill="white"/>
<rect x="3" y="1.5" width="47" height="47" rx="23.5" stroke="#DFE1E7"/>
<g clip-path="url(#clip0_6191_7742)">
<path d="M38.5 25C38.5 18.3726 33.1274 13 26.5 13C19.8726 13 14.5 18.3726 14.5 25C14.5 30.9895 18.8882 35.954 24.625 36.8542V28.4688H21.5781V25H24.625V22.3563C24.625 19.3488 26.4166 17.6875 29.1576 17.6875C30.4701 17.6875 31.8438 17.9219 31.8438 17.9219V20.875H30.3306C28.84 20.875 28.375 21.8001 28.375 22.75V25H31.7031L31.1711 28.4688H28.375V36.8542C34.1118 35.954 38.5 30.9895 38.5 25Z" fill="#1877F2"/>
<path d="M31.1711 28.4688L31.7031 25H28.375V22.75C28.375 21.801 28.84 20.875 30.3306 20.875H31.8438V17.9219C31.8438 17.9219 30.4705 17.6875 29.1576 17.6875C26.4166 17.6875 24.625 19.3488 24.625 22.3563V25H21.5781V28.4688H24.625V36.8542C25.8674 37.0486 27.1326 37.0486 28.375 36.8542V28.4688H31.1711Z" fill="white"/>
</g>
</g>
<defs>
<filter id="filter0_d_6191_7742" x="0.5" y="0" width="52" height="52" filterUnits="userSpaceOnUse" color-interpolation-filters="sRGB">
<feFlood flood-opacity="0" result="BackgroundImageFix"/>
<feColorMatrix in="SourceAlpha" type="matrix" values="0 0 0 0 0 0 0 0 0 0 0 0 0 0 0 0 0 0 127 0" result="hardAlpha"/>
<feOffset dy="1"/>
<feGaussianBlur stdDeviation="1"/>
<feComposite in2="hardAlpha" operator="out"/>
<feColorMatrix type="matrix" values="0 0 0 0 0.0509804 0 0 0 0 0.0509804 0 0 0 0 0.0705882 0 0 0 0.06 0"/>
<feBlend mode="normal" in2="BackgroundImageFix" result="effect1_dropShadow_6191_7742"/>
<feBlend mode="normal" in="SourceGraphic" in2="effect1_dropShadow_6191_7742" result="shape"/>
</filter>
<clipPath id="clip0_6191_7742">
<rect width="24" height="24" fill="white" transform="translate(14.5 13)"/>
</clipPath>
</defs>
</svg>
