<svg width="24" height="24" viewBox="0 0 24 24" fill="none" xmlns="http://www.w3.org/2000/svg">
<path d="M19.348 7.2154C17.5726 6.19055 15.3024 6.79954 14.2764 8.57494L11.6902 13.0551C10.9418 14.3488 11.9052 14.8009 12.9795 15.445L15.468 16.8813C16.3108 17.3674 17.3872 17.0788 17.8733 16.2372L20.532 11.633C21.4252 10.0859 20.8952 8.10861 19.348 7.2154Z" fill="#EA4335"/>
<path d="M16.4219 9.06957L13.9333 7.63325C12.5595 6.87065 11.7816 6.82017 11.2176 7.71665L7.54721 14.0732C6.52234 15.8475 7.13243 18.1166 8.90671 19.1393C10.4539 20.0325 12.4312 19.5025 13.3243 17.9553L17.065 11.4759C17.5532 10.6332 17.2647 9.55567 16.4219 9.06957Z" fill="#FBBC04"/>
<path d="M16.9005 5.8017L15.1525 4.79221C13.2191 3.67628 10.747 4.33794 9.63105 6.27134L6.303 12.0353C5.81142 12.8857 6.1033 13.9742 6.9537 14.4647L8.91124 15.5949C9.87791 16.1534 11.1134 15.822 11.672 14.8553L15.474 8.27058C16.2619 6.90666 18.0054 6.43922 19.3693 7.22706L16.9005 5.8017Z" fill="#34A853"/>
<path d="M10.1039 7.92084L8.21441 6.83234C7.37168 6.34735 6.29527 6.63483 5.80918 7.47535L3.54221 11.3926C2.42628 13.3205 3.08794 15.7872 5.02134 16.8999L6.45986 17.7283L8.20452 18.7334L8.96165 19.169C7.61748 18.2692 7.19064 16.4664 8.01249 15.0465L8.59953 14.0327L10.7491 10.3184C11.2341 9.48008 10.9455 8.40583 10.1039 7.92084Z" fill="#4285F4"/>
</svg>
