<svg width="24" height="24" viewBox="0 0 24 24" fill="none" xmlns="http://www.w3.org/2000/svg">
<path d="M17.1939 4.40129C16.3634 3.45467 14.8621 3.04883 12.9415 3.04883H7.36749C6.97455 3.04883 6.64065 3.3346 6.57913 3.72208L4.25822 18.4419C4.21208 18.7321 4.43683 18.995 4.73104 18.995H8.17222L9.03648 13.5133L9.00969 13.6849C9.07121 13.2975 9.40263 13.0117 9.79507 13.0117H11.4303C14.6428 13.0117 17.1582 11.7069 17.893 7.93227C17.9148 7.82064 17.9336 7.71198 17.95 7.60581C17.8572 7.55669 17.8572 7.55669 17.95 7.60581C18.1688 6.21069 17.9485 5.26109 17.1939 4.40129Z" fill="#27346A"/>
<path d="M10.3532 7.10323C10.445 7.05957 10.5472 7.03526 10.6544 7.03526H15.0243C15.5418 7.03526 16.0245 7.069 16.4656 7.13994C16.5921 7.16028 16.7146 7.1836 16.8337 7.21039C16.9528 7.23669 17.0684 7.26646 17.1805 7.2992C17.2366 7.31557 17.2916 7.33244 17.3457 7.3503C17.5625 7.42274 17.7645 7.50708 17.95 7.60581C18.1688 6.21019 17.9485 5.26109 17.1939 4.40129C16.3629 3.45467 14.8621 3.04883 12.9415 3.04883H7.36699C6.97455 3.04883 6.64065 3.3346 6.57913 3.72208L4.25822 18.4414C4.21208 18.7321 4.43683 18.9946 4.73054 18.9946H8.17222L9.96524 7.62417C10.002 7.39099 10.1518 7.19998 10.3532 7.10323Z" fill="#27346A"/>
<path d="M17.8933 7.93192C17.1585 11.706 14.6431 13.0113 11.4307 13.0113H9.79492C9.40248 13.0113 9.07106 13.2971 9.01004 13.6846L7.93492 20.5005C7.89473 20.7545 8.0912 20.9847 8.3482 20.9847H11.2491C11.5924 20.9847 11.8846 20.7346 11.9382 20.3958L11.9665 20.2479L12.5132 16.7829L12.5485 16.5914C12.602 16.2526 12.8943 16.0025 13.2376 16.0025H13.6717C16.4818 16.0025 18.6822 14.8609 19.3251 11.5592C19.5936 10.1794 19.4546 9.02739 18.7447 8.21819C18.5293 7.9731 18.2619 7.77068 17.9504 7.60547C17.9335 7.71214 17.9151 7.82029 17.8933 7.93192Z" fill="#2790C3"/>
<path d="M17.1806 7.2991C17.0685 7.26635 16.9529 7.23659 16.8338 7.21029C16.7147 7.184 16.5917 7.16068 16.4657 7.14034C16.0241 7.06889 15.5419 7.03516 15.0239 7.03516H10.6544C10.5468 7.03516 10.4446 7.05947 10.3533 7.10362C10.1514 7.20037 10.002 7.39088 9.96532 7.62456L9.03656 13.5132L9.00977 13.6848C9.07079 13.2973 9.40221 13.0116 9.79465 13.0116H11.4304C14.6429 13.0116 17.1583 11.7067 17.893 7.93217C17.9149 7.82054 17.9332 7.71238 17.9501 7.60571C17.764 7.50748 17.5626 7.42264 17.3458 7.3507C17.2917 7.33284 17.2366 7.31547 17.1806 7.2991Z" fill="#1F264F"/>
</svg>
