<svg width="29" height="28" viewBox="0 0 29 28" fill="none" xmlns="http://www.w3.org/2000/svg">
<path d="M9.17605 19.4907C9.05655 19.3709 8.97422 19.2191 8.93899 19.0537C8.90375 18.8882 8.91709 18.716 8.97742 18.5579L11.6847 11.5203C11.7739 11.2893 11.9568 11.1064 12.1869 11.0172L19.2245 8.31082C19.3826 8.25064 19.5546 8.23744 19.72 8.27282C19.8854 8.3082 20.037 8.39064 20.1565 8.51021C20.2761 8.62979 20.3585 8.78139 20.3939 8.94675C20.4293 9.1121 20.4161 9.28417 20.3559 9.4422L17.6487 16.4798C17.6045 16.594 17.5371 16.6977 17.4506 16.7843C17.3641 16.871 17.2605 16.9386 17.1464 16.9829L10.1088 19.6893C9.95072 19.7497 9.77857 19.763 9.61309 19.7278C9.4476 19.6925 9.29583 19.6102 9.17605 19.4907ZM13.1783 12.5117L11.318 17.3487L16.155 15.4884L18.0153 10.6514L13.1783 12.5117Z" fill="#FC5733"/>
<path d="M14.6667 27.125C7.42955 27.125 1.54167 21.2371 1.54167 14C1.54167 6.76288 7.42955 0.875 14.6667 0.875C21.9038 0.875 27.7917 6.76288 27.7917 14C27.7917 21.2371 21.9038 27.125 14.6667 27.125ZM14.6667 2.625C8.39467 2.625 3.29167 7.728 3.29167 14C3.29167 20.272 8.39467 25.375 14.6667 25.375C20.9387 25.375 26.0417 20.272 26.0417 14C26.0417 7.728 20.9387 2.625 14.6667 2.625Z" fill="#FC5733"/>
</svg>
