<svg width="29" height="28" viewBox="0 0 29 28" fill="none" xmlns="http://www.w3.org/2000/svg">
<path d="M18.5214 6.7409V18.2347M6.16667 22.1668H4.01283C3.26975 22.1668 2.66667 21.5571 2.66667 20.8057L2.66667 17.1446C3.21321 16.8265 3.66716 16.3683 3.98281 15.8162C4.29846 15.2642 4.46466 14.6378 4.46466 14.0002C4.46466 13.3625 4.29846 12.7361 3.98281 12.1841C3.66716 11.632 3.21321 11.1739 2.66667 10.8557L2.66667 7.19461C2.66667 6.44327 3.26975 5.8335 4.01283 5.8335L24.6538 5.8335C25.3969 5.8335 26 6.44327 26 7.19461V10.8557C25.4535 11.1739 24.9995 11.632 24.6839 12.1841C24.3682 12.7361 24.202 13.3625 24.202 14.0002C24.202 14.6378 24.3682 15.2642 24.6839 15.8162C24.9995 16.3683 25.4535 16.8265 26 17.1446V20.8057C26 21.5571 25.3969 22.1668 24.6538 22.1668L11.4167 22.1668" stroke="#FC5733" stroke-width="2" stroke-linecap="round" stroke-linejoin="round"/>
</svg>
