<svg width="29" height="28" viewBox="0 0 29 28" fill="none" xmlns="http://www.w3.org/2000/svg">
<path d="M18.5214 6.74042V18.2342M6.16667 22.1663H4.01283C3.26975 22.1663 2.66667 21.5566 2.66667 20.8052L2.66667 17.1441C3.21321 16.826 3.66716 16.3678 3.98281 15.8158C4.29846 15.2637 4.46466 14.6373 4.46466 13.9997C4.46466 13.362 4.29846 12.7356 3.98281 12.1836C3.66716 11.6316 3.21321 11.1734 2.66667 10.8552L2.66667 7.19412C2.66667 6.44279 3.26975 5.83301 4.01283 5.83301L24.6538 5.83301C25.3969 5.83301 26 6.44279 26 7.19412V10.8552C25.4535 11.1734 24.9995 11.6316 24.6839 12.1836C24.3682 12.7356 24.202 13.362 24.202 13.9997C24.202 14.6373 24.3682 15.2637 24.6839 15.8158C24.9995 16.3678 25.4535 16.826 26 17.1441V20.8052C26 21.5566 25.3969 22.1663 24.6538 22.1663L11.4167 22.1663" stroke="#1D1F2C" stroke-width="2" stroke-linecap="round" stroke-linejoin="round"/>
</svg>
