<svg width="24" height="24" viewBox="0 0 24 24" fill="none" xmlns="http://www.w3.org/2000/svg">
<g clip-path="url(#clip0_6191_1934)">
<path d="M16.0492 11.2196C14.9692 9.53484 13.1299 8.52886 11.129 8.52886C9.12801 8.52886 7.28869 9.53484 6.20892 11.2196L3.60661 15.2792C3.17489 15.9527 2.97567 16.7309 3.03037 17.529C3.08512 18.3274 3.38892 19.0708 3.90876 19.6794C4.42894 20.2875 5.11631 20.7032 5.89655 20.8815C6.67673 21.0599 7.47656 20.9837 8.20936 20.6616L8.25844 20.6398C10.1023 19.8455 12.2093 19.8528 14.0484 20.6616C14.5228 20.8702 15.0255 20.9757 15.5326 20.9757C15.8084 20.9757 16.0858 20.9444 16.3606 20.8817C17.1409 20.7036 17.8283 20.2879 18.3486 19.6796C18.8686 19.0715 19.1726 18.3279 19.2275 17.5294C19.2825 16.7309 19.0832 15.9529 18.6515 15.279L16.0492 11.2196ZM4.30758 11.2143C5.08172 10.917 5.66986 10.2931 5.96358 9.45759C6.24319 8.66255 6.22026 7.76494 5.89889 6.93C5.57737 6.09562 4.99256 5.41444 4.25208 5.01178C3.47423 4.58897 2.6197 4.52016 1.84678 4.81805C0.291889 5.41589 -0.421688 7.33739 0.256312 9.10238C0.797952 10.5071 2.06123 11.3939 3.33834 11.3939C3.66973 11.3943 3.99834 11.3334 4.30758 11.2143ZM9.35686 8.03377C11.3007 8.03377 12.8822 6.23198 12.8822 4.01733C12.8822 1.80211 11.3007 0 9.35686 0C7.41319 0 5.83191 1.80211 5.83191 4.01733C5.83191 6.23198 7.41314 8.03377 9.35686 8.03377ZM15.4451 9.02053H15.4453C15.7381 9.11783 16.0446 9.16733 16.3531 9.16716C17.7707 9.16716 19.1523 8.13539 19.6794 6.54966C19.983 5.63691 19.963 4.67175 19.6232 3.83222C19.2676 2.95331 18.6086 2.31534 17.7675 2.03578C16.926 1.75617 16.0162 1.8728 15.2053 2.36391C14.4306 2.83298 13.8369 3.59419 13.5337 4.50694C12.8937 6.43252 13.7512 8.45728 15.4451 9.02053ZM22.8691 8.55178L22.8686 8.55122C21.5281 7.56098 19.5232 7.99017 18.3992 9.5085C17.2762 11.0275 17.4518 13.0697 18.7903 14.0607C19.2784 14.4223 19.8553 14.5951 20.4456 14.5951C21.4745 14.5951 22.5449 14.07 23.2604 13.1043C24.3832 11.5852 24.2078 9.54309 22.8691 8.55173V8.55178Z" fill="white"/>
</g>
<defs>
<clipPath id="clip0_6191_1934">
<rect width="24" height="24" fill="white"/>
</clipPath>
</defs>
</svg>
