<svg width="18" height="18" viewBox="0 0 18 18" fill="none" xmlns="http://www.w3.org/2000/svg">
<g clip-path="url(#clip0_6191_1965)">
<path d="M9 9H8.25C8.25 9.32282 8.45657 9.60943 8.76283 9.71151L9 9ZM9.75 5.25C9.75 4.83579 9.41421 4.5 9 4.5C8.58579 4.5 8.25 4.83579 8.25 5.25H9.75ZM11.0128 10.4615C11.4058 10.5925 11.8305 10.3801 11.9615 9.98717C12.0925 9.59421 11.8801 9.16947 11.4872 9.03849L11.0128 10.4615ZM9 9H9.75V5.25H9H8.25V9H9ZM9 9L8.76283 9.71151L11.0128 10.4615L11.25 9.75L11.4872 9.03849L9.23717 8.28849L9 9ZM16.5 9H15.75C15.75 12.7279 12.7279 15.75 9 15.75V16.5V17.25C13.5563 17.25 17.25 13.5563 17.25 9H16.5ZM9 16.5V15.75C5.27208 15.75 2.25 12.7279 2.25 9H1.5H0.75C0.75 13.5563 4.44365 17.25 9 17.25V16.5ZM1.5 9H2.25C2.25 5.27208 5.27208 2.25 9 2.25V1.5V0.75C4.44365 0.75 0.75 4.44365 0.75 9H1.5ZM9 1.5V2.25C12.7279 2.25 15.75 5.27208 15.75 9H16.5H17.25C17.25 4.44365 13.5563 0.75 9 0.75V1.5Z" fill="#1D1F2C"/>
</g>
<defs>
<clipPath id="clip0_6191_1965">
<rect width="18" height="18" fill="white"/>
</clipPath>
</defs>
</svg>
