<svg width="17" height="16" viewBox="0 0 17 16" fill="none" xmlns="http://www.w3.org/2000/svg">
<path d="M8.5 7.99967H7.75C7.75 8.3225 7.95658 8.6091 8.26283 8.71119L8.5 7.99967ZM9.25 4.66634C9.25 4.25213 8.91422 3.91634 8.5 3.91634C8.08579 3.91634 7.75 4.25213 7.75 4.66634H9.25ZM10.2628 9.37785C10.6558 9.50884 11.0805 9.29647 11.2115 8.90351C11.3425 8.51055 11.1301 8.08581 10.7372 7.95483L10.2628 9.37785ZM8.5 7.99967H9.25V4.66634H8.5H7.75V7.99967H8.5ZM8.5 7.99967L8.26283 8.71119L10.2628 9.37785L10.5 8.66634L10.7372 7.95483L8.73717 7.28816L8.5 7.99967ZM15.1667 7.99967H14.4167C14.4167 11.2674 11.7677 13.9163 8.5 13.9163V14.6663V15.4163C12.5961 15.4163 15.9167 12.0958 15.9167 7.99967H15.1667ZM8.5 14.6663V13.9163C5.23232 13.9163 2.58334 11.2674 2.58334 7.99967H1.83334H1.08334C1.08334 12.0958 4.40389 15.4163 8.5 15.4163V14.6663ZM1.83334 7.99967H2.58334C2.58334 4.73199 5.23232 2.08301 8.5 2.08301V1.33301V0.583008C4.40389 0.583008 1.08334 3.90356 1.08334 7.99967H1.83334ZM8.5 1.33301V2.08301C11.7677 2.08301 14.4167 4.73199 14.4167 7.99967H15.1667H15.9167C15.9167 3.90356 12.5961 0.583008 8.5 0.583008V1.33301Z" fill="#FC5733"/>
</svg>
