<svg width="28" height="28" viewBox="0 0 28 28" fill="none" xmlns="http://www.w3.org/2000/svg">
<path d="M22.89 22.9662C22.89 24.1414 21.9345 25.0969 20.7602 25.0969C19.586 25.0969 18.6305 24.1414 18.6305 22.9662C18.6305 21.792 19.586 20.8365 20.7602 20.8365C21.9345 20.8365 22.89 21.792 22.89 22.9662ZM7.38936 20.8365C6.82473 20.8372 6.28342 21.0618 5.88417 21.4611C5.48491 21.8603 5.26031 22.4016 5.25961 22.9662C5.25961 24.1414 6.21511 25.0969 7.38936 25.0969C8.56361 25.0969 9.51911 24.1414 9.51911 22.9662C9.51842 22.4016 9.29381 21.8603 8.89455 21.4611C8.4953 21.0618 7.95399 20.8372 7.38936 20.8365ZM26.2937 16.7616V20.9958C26.1817 22.5944 25.2061 23.3652 24.1185 23.6234C24.162 23.407 24.1842 23.1869 24.185 22.9662C24.185 21.078 22.6485 19.5424 20.7611 19.5424C18.8737 19.5424 17.3372 21.078 17.3372 22.9662C17.3372 23.2305 17.374 23.4851 17.43 23.7319L10.7161 23.7441C10.7747 23.493 10.8132 23.2349 10.8132 22.9662C10.8132 21.078 9.27674 19.5424 7.38936 19.5424C5.50199 19.5424 3.96549 21.078 3.96549 22.9662C3.96549 23.2209 3.99786 23.4676 4.05124 23.7074C3.34511 23.6094 2.76586 23.3591 2.35286 22.9242C1.93223 22.4793 1.70127 21.888 1.70886 21.2757L1.71936 18.7129C2.06936 16.4921 3.85699 15.7729 4.75386 15.702H5.42586L8.66336 11.9325C9.32749 11.1607 10.479 10.5517 11.5596 10.3479V9.53762H10.2804C10.0483 9.53762 9.82574 9.44544 9.66164 9.28134C9.49755 9.11725 9.40536 8.89469 9.40536 8.66262C9.40536 8.43056 9.49755 8.208 9.66164 8.0439C9.82574 7.87981 10.0483 7.78762 10.2804 7.78762H11.0845V5.40762C11.0845 5.17556 11.1767 4.953 11.3408 4.7889C11.5049 4.62481 11.7274 4.53262 11.9595 4.53262H16.5226V3.06787C16.5226 2.83581 16.6148 2.61325 16.7789 2.44915C16.943 2.28506 17.1655 2.19287 17.3976 2.19287H21.651C21.883 2.19287 22.1056 2.28506 22.2697 2.44915C22.4338 2.61325 22.526 2.83581 22.526 3.06787V7.78937H23.0974C23.3294 7.78937 23.552 7.88156 23.7161 8.04565C23.8802 8.20975 23.9724 8.43231 23.9724 8.66437C23.9724 8.89644 23.8802 9.119 23.7161 9.28309C23.552 9.44719 23.3294 9.53937 23.0974 9.53937H21.3692V10.3067C22.5584 10.4756 23.793 11.3156 24.311 12.363L26.0557 15.8892C26.3392 16.4615 26.2937 16.7616 26.2937 16.7616ZM13.3079 10.27H19.6184V9.5385H13.3079V10.27ZM13.8486 17.8414C13.8486 17.6093 13.7564 17.3868 13.5923 17.2227C13.4282 17.0586 13.2057 16.9664 12.9736 16.9664H11.074C10.8419 16.9664 10.6194 17.0586 10.4553 17.2227C10.2912 17.3868 10.199 17.6093 10.199 17.8414C10.199 18.0734 10.2912 18.296 10.4553 18.4601C10.6194 18.6242 10.8419 18.7164 11.074 18.7164H12.9736C13.2057 18.7164 13.4282 18.6242 13.5923 18.4601C13.7564 18.296 13.8486 18.0734 13.8486 17.8414ZM14.9476 12.02H12.2841C11.5579 12.02 10.4632 12.5222 9.98899 13.0735L7.73149 15.702L14.9476 15.7011V12.02ZM24.0091 15.6994L22.7421 13.1382C22.4525 12.5529 21.5932 12.02 20.9405 12.02H16.6967V15.7002L24.0091 15.6994Z" fill="white"/>
</svg>
