<svg width="24" height="24" viewBox="0 0 24 24" fill="none" xmlns="http://www.w3.org/2000/svg">
<path d="M14.5769 19.5C14.8104 19.5001 14.9995 19.6893 14.9998 19.9229C14.9998 19.9735 14.9914 20.0244 14.9724 20.0713C14.515 21.199 13.3563 22 11.9998 22C10.6433 21.9999 9.48541 21.1989 9.02807 20.0713C9.00904 20.0243 8.99975 19.9735 8.99975 19.9229C8.99999 19.6893 9.18995 19.5 9.42358 19.5H14.5769ZM12.1003 4.00098C12.0349 4.32381 11.9998 4.65784 11.9998 5C11.9998 7.76134 14.2384 9.99986 16.9998 10C17.458 10 17.9024 9.93868 18.324 9.82324L18.6648 12.8389C18.7505 13.5952 19.0578 14.3068 19.5447 14.8799C20.5781 16.0962 19.739 18 18.1697 18H5.82983C4.2607 17.9998 3.42247 16.0961 4.45581 14.8799C4.94257 14.3068 5.24897 13.5951 5.33471 12.8389L5.67944 9.79395C6.05364 6.49088 8.77083 4.00013 11.9998 4C12.0331 4 12.0671 4.00045 12.1003 4.00098ZM16.9998 2C18.6566 2 19.9998 3.34315 19.9998 5C19.9998 6.65685 18.6566 8 16.9998 8C15.343 7.99986 13.9998 6.65677 13.9998 5C13.9998 3.34323 15.343 2.00014 16.9998 2Z" fill="#1D1F2C"/>
</svg>
