<svg width="32" height="32" viewBox="0 0 32 32" fill="none" xmlns="http://www.w3.org/2000/svg">
<path opacity="0.4" d="M29.3333 15.9998C29.3333 23.3636 23.3638 29.3332 16 29.3332C8.63616 29.3332 2.66663 23.3636 2.66663 15.9998C2.66663 8.63604 8.63616 2.6665 16 2.6665C23.3638 2.6665 29.3333 8.63604 29.3333 15.9998Z" fill="#FC5733"/>
<path d="M16 9.66699C16.5523 9.66699 17 10.1147 17 10.667V15H21.333C21.8853 15 22.333 15.4477 22.333 16C22.333 16.5523 21.8853 17 21.333 17H17V21.333C17 21.8853 16.5523 22.333 16 22.333C15.4477 22.333 15 21.8853 15 21.333V17H10.667C10.1147 17 9.66699 16.5523 9.66699 16C9.66699 15.4477 10.1147 15 10.667 15H15V10.667C15 10.1147 15.4477 9.66699 16 9.66699Z" fill="#FC5733"/>
</svg>
