<svg width="24" height="24" viewBox="0 0 24 24" fill="none" xmlns="http://www.w3.org/2000/svg">
<path d="M11.9946 6.54546C13.2 6.54546 14.1764 5.56911 14.1764 4.36362C14.1764 3.95453 14.0618 3.56728 13.8655 3.24L11.9946 0L10.1236 3.24C9.92016 3.57948 9.8127 3.96784 9.81272 4.36362C9.81272 5.56911 10.7891 6.54546 11.9946 6.54546ZM18.54 9.81819H13.0854V7.63635H10.9036V9.81819H5.44909C3.64362 9.81819 2.17636 11.2854 2.17636 13.0909V14.7709C2.17636 15.9491 3.13635 16.9091 4.31453 16.9091C4.88726 16.9091 5.42179 16.6854 5.82546 16.2818L8.15999 13.9527L10.4891 16.2763C11.2964 17.0836 12.7037 17.0836 13.5109 16.2763L15.8454 13.9527L18.1745 16.2763C18.5782 16.6799 19.1127 16.9036 19.6855 16.9036C20.8637 16.9036 21.8236 15.9436 21.8236 14.7654V13.0909C21.8127 11.2854 20.3455 9.81819 18.54 9.81819Z" fill="#777980"/>
<path d="M17.0073 17.4383L15.8346 16.2656L14.6564 17.4383C13.2328 18.862 10.7455 18.862 9.32186 17.4383L8.1491 16.2656L6.97091 17.4383C6.26728 18.1529 5.32366 18.5456 4.31453 18.5456C3.5236 18.5456 2.78724 18.2947 2.17636 17.8747V22.9093C2.17636 23.5092 2.66727 24.0002 3.26726 24.0002H20.7218C21.3218 24.0002 21.8127 23.5092 21.8127 22.9093V17.8747C21.2018 18.2947 20.4709 18.5456 19.6745 18.5456C18.6655 18.5456 17.7218 18.1529 17.0073 17.4383Z" fill="#777980"/>
</svg>
