<svg width="18" height="21" viewBox="0 0 18 21" fill="none" xmlns="http://www.w3.org/2000/svg">
<path d="M18 17C18 19.2091 16.2091 21 14 21H4C1.79086 21 5.23466e-08 19.2091 0 17V8.75H18V17ZM5 13C4.44772 13 4 13.4477 4 14C4 14.5523 4.44772 15 5 15C5.55228 15 6 14.5523 6 14C6 13.4477 5.55228 13 5 13ZM9 13C8.44771 13 8 13.4477 8 14C8 14.5523 8.44771 15 9 15C9.55229 15 10 14.5523 10 14C10 13.4477 9.55229 13 9 13ZM13 13C12.4477 13 12 13.4477 12 14C12 14.5523 12.4477 15 13 15C13.5523 15 14 14.5523 14 14C14 13.4477 13.5523 13 13 13ZM13 0.25C13.4142 0.25 13.75 0.585786 13.75 1V2.5H14C16.2091 2.5 18 4.29086 18 6.5V7.25H0V6.5C0 4.29086 1.79086 2.5 4 2.5H4.25V1C4.25 0.585786 4.58579 0.25 5 0.25C5.41421 0.25 5.75 0.585786 5.75 1V2.5H12.25V1C12.25 0.585786 12.5858 0.25 13 0.25Z" fill="#A5A5AB"/>
</svg>
