<svg width="24" height="24" viewBox="0 0 24 24" fill="none" xmlns="http://www.w3.org/2000/svg">
<g clip-path="url(#clip0_6191_2615)">
<path d="M23.4732 7.96209L21.6784 6.18169C21.1467 6.7133 20.5008 6.9793 19.7413 6.9793C18.9816 6.9793 18.3361 6.7133 17.8045 6.18169C17.2725 5.64989 17.0069 5.00429 17.0069 4.24455C17.0069 3.48476 17.2728 2.83916 17.8045 2.30731L16.0238 0.526914C15.6721 0.175705 15.2426 0 14.7348 0C14.2268 0 13.7973 0.175755 13.4459 0.526914L0.527114 13.4314C0.175655 13.7829 0 14.2128 0 14.7203C0 15.2283 0.175655 15.6578 0.527114 16.0093L2.30751 17.8041C2.83931 17.2725 3.48506 17.0065 4.2447 17.0065C5.00429 17.0065 5.64989 17.2722 6.18164 17.8041C6.7133 18.3358 6.9792 18.9815 6.9792 19.7412C6.9792 20.5009 6.71345 21.1462 6.18164 21.6782L7.9764 23.4729C8.32781 23.8242 8.75755 23.9999 9.26555 23.9999C9.77361 23.9999 10.2033 23.8242 10.5545 23.4729L23.4732 10.54C23.8245 10.1887 24 9.75909 24 9.25104C24 8.74303 23.8245 8.31349 23.4732 7.96209ZM19.6131 10.8107L10.8108 19.6128C10.6401 19.784 10.4264 19.8694 10.1699 19.8694C9.91359 19.8694 9.69998 19.784 9.52906 19.6128L4.37281 14.4571C4.19237 14.2764 4.10222 14.0629 4.10222 13.8162C4.10222 13.5693 4.19237 13.3554 4.37281 13.1749L13.1751 4.37266C13.3462 4.2017 13.5599 4.11614 13.8164 4.11614C14.0725 4.11614 14.2862 4.2017 14.4573 4.37266L19.6132 9.52871C19.7938 9.70925 19.884 9.92292 19.884 10.1698C19.8839 10.4166 19.7938 10.6302 19.6131 10.8107Z" fill="#FC5733"/>
<path d="M13.8167 5.66895L18.3177 10.1697L10.1706 18.3168L5.66985 13.816L13.8167 5.66895Z" fill="#FC5733"/>
</g>
<defs>
<clipPath id="clip0_6191_2615">
<rect width="24" height="24" fill="white"/>
</clipPath>
</defs>
</svg>
