<svg width="16" height="16" viewBox="0 0 16 16" fill="none" xmlns="http://www.w3.org/2000/svg">
<path d="M10.6667 1.33301V3.99967M5.33333 1.33301V3.99967" stroke="#FC5733" stroke-linecap="round" stroke-linejoin="round"/>
<path d="M14 8.66699V8.00033C14 5.48617 14 4.22909 13.2189 3.44804C12.4379 2.66699 11.1808 2.66699 8.66667 2.66699H7.33333C4.81917 2.66699 3.5621 2.66699 2.78105 3.44804C2 4.22909 2 5.48617 2 8.00033V9.33366C2 11.8478 2 13.1049 2.78105 13.8859C3.5621 14.667 4.81917 14.667 7.33333 14.667" stroke="#FC5733" stroke-linecap="round" stroke-linejoin="round"/>
<path d="M2 6.66699H14" stroke="#FC5733" stroke-linecap="round" stroke-linejoin="round"/>
<path d="M8.66667 13.0003C8.66667 13.0003 9.56567 13.3381 10 14.667C10 14.667 12.1177 11.3337 14 10.667" stroke="#FC5733" stroke-linecap="round" stroke-linejoin="round"/>
</svg>
