<svg width="19" height="20" viewBox="0 0 19 20" fill="none" xmlns="http://www.w3.org/2000/svg">
<path d="M13.0625 1.25H5.9375C5.46508 1.25 5.01202 1.44754 4.67797 1.79917C4.34392 2.15081 4.15625 2.62772 4.15625 3.125V16.875C4.15625 17.3723 4.34392 17.8492 4.67797 18.2008C5.01202 18.5525 5.46508 18.75 5.9375 18.75H13.0625C13.5349 18.75 13.988 18.5525 14.322 18.2008C14.6561 17.8492 14.8438 17.3723 14.8438 16.875V3.125C14.8438 2.62772 14.6561 2.15081 14.322 1.79917C13.988 1.44754 13.5349 1.25 13.0625 1.25ZM13.6562 16.875C13.6562 17.0408 13.5937 17.1997 13.4823 17.3169C13.371 17.4342 13.22 17.5 13.0625 17.5H5.9375C5.78003 17.5 5.62901 17.4342 5.51766 17.3169C5.40631 17.1997 5.34375 17.0408 5.34375 16.875V3.125C5.34375 2.95924 5.40631 2.80027 5.51766 2.68306C5.62901 2.56585 5.78003 2.5 5.9375 2.5H13.0625C13.22 2.5 13.371 2.56585 13.4823 2.68306C13.5937 2.80027 13.6562 2.95924 13.6562 3.125V16.875ZM10.3906 4.6875C10.3906 4.87292 10.3384 5.05418 10.2405 5.20835C10.1427 5.36252 10.0036 5.48268 9.84083 5.55364C9.67809 5.62459 9.49901 5.64316 9.32625 5.60699C9.15348 5.57081 8.99479 5.48152 8.87023 5.35041C8.74568 5.2193 8.66085 5.05225 8.62649 4.8704C8.59212 4.68854 8.60976 4.50004 8.67717 4.32873C8.74458 4.15743 8.85873 4.01101 9.0052 3.908C9.15166 3.80498 9.32385 3.75 9.5 3.75C9.73621 3.75 9.96274 3.84877 10.1298 4.02459C10.2968 4.2004 10.3906 4.43886 10.3906 4.6875Z" fill="#1D1F2C"/>
</svg>
