<svg width="25" height="26" viewBox="0 0 25 26" fill="none" xmlns="http://www.w3.org/2000/svg">
<path fill-rule="evenodd" clip-rule="evenodd" d="M18.3316 0.512919C20.1298 0.400535 21.9029 1.02489 23.2391 2.24862C24.4628 3.58474 25.0872 5.35791 24.9873 7.16853V18.8315C25.0997 20.6421 24.4628 22.4153 23.2516 23.7514C21.9154 24.9751 20.1298 25.5995 18.3316 25.4871H6.66859C4.85795 25.5995 3.08477 24.9751 1.74864 23.7514C0.524894 22.4153 -0.0994655 20.6421 0.0129192 18.8315V7.16853C-0.0994655 5.35791 0.524894 3.58474 1.74864 2.24862C3.08477 1.02489 4.85795 0.400535 6.66859 0.512919H18.3316ZM11.2264 19.0562L19.6303 10.6275C20.392 9.85325 20.392 8.60455 19.6303 7.84283L18.0069 6.21951C17.2327 5.44532 15.984 5.44532 15.2098 6.21951L14.3732 7.06864C14.2483 7.19351 14.2483 7.40579 14.3732 7.53066C14.3732 7.53066 16.3586 9.50362 16.3961 9.55357C16.5335 9.70341 16.6209 9.9032 16.6209 10.128C16.6209 10.5775 16.2587 10.9521 15.7967 10.9521C15.5844 10.9521 15.3846 10.8647 15.2473 10.7274L13.1619 8.6545C13.062 8.5546 12.8872 8.5546 12.7873 8.6545L6.83092 14.6108C6.41884 15.0229 6.18159 15.5723 6.1691 16.1592L6.09418 19.1187C6.09418 19.281 6.14413 19.4308 6.25651 19.5432C6.3689 19.6556 6.51874 19.718 6.68107 19.718H9.61556C10.2149 19.718 10.7894 19.4808 11.2264 19.0562Z" fill="white"/>
</svg>
