<svg width="16" height="16" viewBox="0 0 16 16" fill="none" xmlns="http://www.w3.org/2000/svg">
<path d="M9.44707 13.9273C12.2357 13.742 14.4571 11.4891 14.6399 8.66093C14.6756 8.10746 14.6756 7.53426 14.6399 6.98079C14.4571 4.15258 12.2357 1.89975 9.44707 1.71437C8.49567 1.65113 7.5024 1.65127 6.55293 1.71437C3.76426 1.89975 1.54294 4.15258 1.36016 6.98079C1.32439 7.53426 1.32439 8.10746 1.36016 8.66093C1.42673 9.69099 1.88229 10.6447 2.41861 11.4501C2.73001 12.0139 2.52449 12.7175 2.20014 13.3322C1.96627 13.7754 1.84934 13.997 1.94323 14.1571C2.03712 14.3171 2.24684 14.3223 2.66629 14.3325C3.49578 14.3527 4.05512 14.1175 4.49912 13.7901C4.75093 13.6044 4.87685 13.5115 4.96363 13.5009C5.0504 13.4902 5.22118 13.5605 5.56267 13.7012C5.8696 13.8276 6.22597 13.9056 6.55293 13.9273C7.5024 13.9905 8.49567 13.9906 9.44707 13.9273Z" stroke="#FC5733" stroke-linejoin="round"/>
<path d="M7 6.35865C7 5.7922 7.44773 5.33301 8 5.33301C8.55227 5.33301 9 5.7922 9 6.35865C9 6.56283 8.9418 6.75307 8.84153 6.91287C8.54273 7.38927 8 7.84347 8 8.40994V8.66634" stroke="#FC5733" stroke-linecap="round"/>
<path d="M8 10H8.006" stroke="#FC5733" stroke-linecap="round" stroke-linejoin="round"/>
</svg>
