<svg width="16" height="16" viewBox="0 0 16 16" fill="none" xmlns="http://www.w3.org/2000/svg">
<path d="M6.66667 11.2999H4.14C1.89333 11.2999 1.33333 10.7399 1.33333 8.49319V4.49319C1.33333 2.24652 1.89333 1.68652 4.14 1.68652H11.16C13.4067 1.68652 13.9667 2.24652 13.9667 4.49319" stroke="#FC5733" stroke-linecap="round" stroke-linejoin="round"/>
<path d="M6.66666 14.3131V11.2998" stroke="#FC5733" stroke-linecap="round" stroke-linejoin="round"/>
<path d="M1.33333 8.63379H6.66667" stroke="#FC5733" stroke-linecap="round" stroke-linejoin="round"/>
<path d="M4.49333 14.3135H6.66667" stroke="#FC5733" stroke-linecap="round" stroke-linejoin="round"/>
<path d="M14.6667 8.5329V12.3396C14.6667 13.9196 14.2733 14.3129 12.6933 14.3129H10.3267C8.74667 14.3129 8.35333 13.9196 8.35333 12.3396V8.5329C8.35333 6.9529 8.74667 6.55957 10.3267 6.55957H12.6933C14.2733 6.55957 14.6667 6.9529 14.6667 8.5329Z" stroke="#FC5733" stroke-linecap="round" stroke-linejoin="round"/>
<path d="M11.4963 12.1663H11.5023" stroke="#FC5733" stroke-width="1.33333" stroke-linecap="round" stroke-linejoin="round"/>
</svg>
