<svg width="16" height="16" viewBox="0 0 16 16" fill="none" xmlns="http://www.w3.org/2000/svg">
<path d="M10.3333 12C10.3333 13.2887 9.28867 14.3333 8 14.3333C6.71133 14.3333 5.66667 13.2887 5.66667 12" stroke="#FC5733" stroke-linecap="round" stroke-linejoin="round"/>
<path d="M12.8207 12.0003H3.17925C2.52797 12.0003 2 11.4723 2 10.8211C2 10.5083 2.12424 10.2084 2.34539 9.98719L2.74755 9.58506C3.12262 9.20999 3.33333 8.70126 3.33333 8.17086V6.33366C3.33333 3.75633 5.42267 1.66699 8 1.66699C10.5773 1.66699 12.6667 3.75633 12.6667 6.33366V8.17086C12.6667 8.70126 12.8774 9.20999 13.2525 9.58506L13.6546 9.98719C13.8757 10.2084 14 10.5083 14 10.8211C14 11.4723 13.472 12.0003 12.8207 12.0003Z" stroke="#FC5733" stroke-linecap="round" stroke-linejoin="round"/>
</svg>
